# xmcd
#
# Track frame offsets:
#	150
#	10075
#	21582
#	34568
#	47636
#	58011
#	68223
#	79626
#	92708
#	104551
#	116487
#	128279
#
# Disc length: 1863 seconds
# Revision: 2
# Processed by: cddbd v1.5.2PL0 Copyright (c) Steve Scherf et al.
# Submitted via: dBpowerAMP V12.0
#
DISCID=9207450c
DTITLE=Blues - the perfect blues collection 25 original albums (Sony 88697847832) - CD03 Little Richard 1958 Little Richard and Buck Ram and His Rock 'n Ram Orchestra
DYEAR=2011
DGENRE=Blues
TTITLE0=Ain't Nothing Happenin'
TTITLE1=Why Did You Leave Me?
TTITLE2=Every Hour
TTITLE3=I Brought It All On Myself
TTITLE4=Taxi Blues
TTITLE5=Get Rich Quick
TTITLE6=Please Have Mercy On Me
TTITLE7=Thinkin' About My Mother
TTITLE8=Crazy Lips
TTITLE9=Any Hour
TTITLE10=Hey Operator
TTITLE11=That's A Lot Of Brass
EXTD=
EXTT0=
EXTT1=
EXTT2=
EXTT3=
EXTT4=
EXTT5=
EXTT6=
EXTT7=
EXTT8=
EXTT9=
EXTT10=
EXTT11=
PLAYORDER=
